<svg xmlns="http://www.w3.org/2000/svg" xmlns:xlink="http://www.w3.org/1999/xlink" xmlns:lucid="lucid" width="1514" height="1023"><g transform="translate(-84 -88)" lucid:page-tab-id="HWEp-vi-RSFO"><path d="M0 0h1760v1360H0z" fill="#fff"/><path d="M660 540h360v199H660z" stroke="#333" stroke-width="2" fill="#fff"/><path d="M660 577.6h360M660 679.9h360" stroke="#333" stroke-width="2" fill="none"/><use xlink:href="#a" transform="matrix(1,0,0,1,668,548) translate(75.69999999999999 14.6)"/><use xlink:href="#b" transform="matrix(1,0,0,1,668,548) translate(153.5 14.6)"/><use xlink:href="#c" transform="matrix(1,0,0,1,668,548) translate(218.4 14.6)"/><use xlink:href="#d" transform="matrix(1,0,0,1,672,585.6) translate(109.1 25.5)"/><use xlink:href="#e" transform="matrix(1,0,0,1,672,585.6) translate(120.05 25.5)"/><use xlink:href="#f" transform="matrix(1,0,0,1,672,585.6) translate(170 25.5)"/><use xlink:href="#g" transform="matrix(1,0,0,1,672,585.6) translate(180 25.5)"/><use xlink:href="#d" transform="matrix(1,0,0,1,672,585.6) translate(100.625 47.1)"/><use xlink:href="#h" transform="matrix(1,0,0,1,672,585.6) translate(111.575 47.1)"/><use xlink:href="#f" transform="matrix(1,0,0,1,672,585.6) translate(178.47500000000002 47.1)"/><use xlink:href="#g" transform="matrix(1,0,0,1,672,585.6) translate(188.47500000000002 47.1)"/><use xlink:href="#d" transform="matrix(1,0,0,1,672,585.6) translate(110.07499999999999 68.7)"/><use xlink:href="#i" transform="matrix(1,0,0,1,672,585.6) translate(121.02499999999999 68.7)"/><use xlink:href="#f" transform="matrix(1,0,0,1,672,585.6) translate(161.975 68.7)"/><use xlink:href="#j" transform="matrix(1,0,0,1,672,585.6) translate(171.975 68.7)"/><use xlink:href="#k" transform="matrix(1,0,0,1,672,687.9) translate(44.45000000000002 25.6)"/><use xlink:href="#l" transform="matrix(1,0,0,1,672,687.9) translate(59.95000000000002 25.6)"/><use xlink:href="#m" transform="matrix(1,0,0,1,672,687.9) translate(262.6 25.6)"/><use xlink:href="#n" transform="matrix(1,0,0,1,672,687.9) translate(272.6 25.6)"/><path d="M340 126h669.8v199H340z" stroke="#333" stroke-width="2" fill="#fff"/><path d="M340 163.6h669.8M340 222.7h669.8" stroke="#333" stroke-width="2" fill="none"/><use xlink:href="#o" transform="matrix(1,0,0,1,348,134) translate(230.17499999999998 14.6)"/><use xlink:href="#p" transform="matrix(1,0,0,1,348,134) translate(295.075 14.6)"/><use xlink:href="#q" transform="matrix(1,0,0,1,348,134) translate(349.975 14.6)"/><use xlink:href="#d" transform="matrix(1,0,0,1,352,171.6) translate(147.8 25.6)"/><use xlink:href="#r" transform="matrix(1,0,0,1,352,171.6) translate(158.75 25.6)"/><use xlink:href="#f" transform="matrix(1,0,0,1,352,171.6) translate(270.55 25.6)"/><use xlink:href="#s" transform="matrix(1,0,0,1,352,171.6) translate(280.55 25.6)"/><use xlink:href="#k" transform="matrix(1,0,0,1,352,230.7) translate(19.250000000000057 25.5)"/><use xlink:href="#t" transform="matrix(1,0,0,1,352,230.7) translate(34.75000000000006 25.5)"/><use xlink:href="#m" transform="matrix(1,0,0,1,352,230.7) translate(399.1 25.5)"/><use xlink:href="#u" transform="matrix(1,0,0,1,352,230.7) translate(409.1 25.5)"/><use xlink:href="#k" transform="matrix(1,0,0,1,352,230.7) translate(113.12500000000006 47.1)"/><use xlink:href="#v" transform="matrix(1,0,0,1,352,230.7) translate(128.62500000000006 47.1)"/><use xlink:href="#m" transform="matrix(1,0,0,1,352,230.7) translate(354.17499999999995 47.1)"/><use xlink:href="#w" transform="matrix(1,0,0,1,352,230.7) translate(364.17499999999995 47.1)"/><use xlink:href="#k" transform="matrix(1,0,0,1,352,230.7) translate(134.60000000000005 68.7)"/><use xlink:href="#x" transform="matrix(1,0,0,1,352,230.7) translate(150.10000000000005 68.7)"/><use xlink:href="#m" transform="matrix(1,0,0,1,352,230.7) translate(468.44999999999993 68.7)"/><use xlink:href="#y" transform="matrix(1,0,0,1,352,230.7) translate(478.44999999999993 68.7)"/><path d="M674.9 356.38v64.12a12 12 0 0 0 12 12H828a12 12 0 0 1 12 12v78.12" stroke="#333" fill="none"/><path d="M674.9 326.7l14.84 14.86-14.85 15.15-14.86-15.14z" stroke="#333" fill="#fff"/><path d="M840 537.38l-4.63-14.26h9.26z" stroke="#333" fill="#333"/><path d="M120 440h360v285H120z" stroke="#333" stroke-width="2" fill="#fff"/><path d="M120 477.6h360M120 601.5h360" stroke="#333" stroke-width="2" fill="none"/><g><use xlink:href="#z" transform="matrix(1,0,0,1,128,448) translate(155.575 14.6)"/></g><g><use xlink:href="#d" transform="matrix(1,0,0,1,132,485.6) translate(115.07499999999999 25.19999999999999)"/><use xlink:href="#A" transform="matrix(1,0,0,1,132,485.6) translate(126.02499999999999 25.19999999999999)"/><use xlink:href="#B" transform="matrix(1,0,0,1,132,485.6) translate(201.975 25.19999999999999)"/><use xlink:href="#d" transform="matrix(1,0,0,1,132,485.6) translate(86.35 46.79999999999999)"/><use xlink:href="#C" transform="matrix(1,0,0,1,132,485.6) translate(97.3 46.79999999999999)"/><use xlink:href="#D" transform="matrix(1,0,0,1,132,485.6) translate(210.45 46.79999999999999)"/><use xlink:href="#d" transform="matrix(1,0,0,1,132,485.6) translate(90.375 68.39999999999999)"/><use xlink:href="#E" transform="matrix(1,0,0,1,132,485.6) translate(101.325 68.39999999999999)"/><use xlink:href="#D" transform="matrix(1,0,0,1,132,485.6) translate(206.425 68.39999999999999)"/><use xlink:href="#d" transform="matrix(1,0,0,1,132,485.6) translate(101.6 90)"/><use xlink:href="#F" transform="matrix(1,0,0,1,132,485.6) translate(112.55 90)"/><use xlink:href="#G" transform="matrix(1,0,0,1,132,485.6) translate(215.45 90)"/></g><g><use xlink:href="#k" transform="matrix(1,0,0,1,132,609.5) translate(27.44999999999999 25.19999999999999)"/><use xlink:href="#H" transform="matrix(1,0,0,1,132,609.5) translate(42.94999999999999 25.19999999999999)"/><use xlink:href="#I" transform="matrix(1,0,0,1,132,609.5) translate(240.7 25.19999999999999)"/><use xlink:href="#J" transform="matrix(1,0,0,1,132,609.5) translate(275.6 25.19999999999999)"/><use xlink:href="#k" transform="matrix(1,0,0,1,132,609.5) translate(97.9 46.79999999999999)"/><use xlink:href="#K" transform="matrix(1,0,0,1,132,609.5) translate(113.4 46.79999999999999)"/><use xlink:href="#J" transform="matrix(1,0,0,1,132,609.5) translate(205.15 46.79999999999999)"/><use xlink:href="#k" transform="matrix(1,0,0,1,132,609.5) translate(21.474999999999994 68.39999999999999)"/><use xlink:href="#L" transform="matrix(1,0,0,1,132,609.5) translate(36.974999999999994 68.39999999999999)"/><use xlink:href="#M" transform="matrix(1,0,0,1,132,609.5) translate(211.67499999999998 68.39999999999999)"/><use xlink:href="#J" transform="matrix(1,0,0,1,132,609.5) translate(281.57500000000005 68.39999999999999)"/><use xlink:href="#k" transform="matrix(1,0,0,1,132,609.5) translate(44.45000000000002 90)"/><use xlink:href="#l" transform="matrix(1,0,0,1,132,609.5) translate(59.95000000000002 90)"/><use xlink:href="#m" transform="matrix(1,0,0,1,132,609.5) translate(262.6 90)"/><use xlink:href="#n" transform="matrix(1,0,0,1,132,609.5) translate(272.6 90)"/></g><path d="M280 880h360v199H280z" stroke="#333" stroke-width="2" fill="#fff"/><path d="M280 917.6h360m-360 102.3h360" stroke="#333" stroke-width="2" fill="none"/><g><use xlink:href="#N" transform="matrix(1,0,0,1,288,888) translate(150.025 14.6)"/></g><g><use xlink:href="#d" transform="matrix(1,0,0,1,292,925.6) translate(115.07499999999999 25.5)"/><use xlink:href="#A" transform="matrix(1,0,0,1,292,925.6) translate(126.02499999999999 25.5)"/><use xlink:href="#B" transform="matrix(1,0,0,1,292,925.6) translate(201.975 25.5)"/><use xlink:href="#d" transform="matrix(1,0,0,1,292,925.6) translate(61.20000000000002 47.1)"/><use xlink:href="#O" transform="matrix(1,0,0,1,292,925.6) translate(72.15000000000002 47.1)"/><use xlink:href="#P" transform="matrix(1,0,0,1,292,925.6) translate(255.85 47.1)"/><use xlink:href="#d" transform="matrix(1,0,0,1,292,925.6) translate(88.175 68.7)"/><use xlink:href="#Q" transform="matrix(1,0,0,1,292,925.6) translate(99.125 68.7)"/><use xlink:href="#R" transform="matrix(1,0,0,1,292,925.6) translate(200.925 68.7)"/></g><g><use xlink:href="#k" transform="matrix(1,0,0,1,292,1027.9) translate(44.45000000000002 25.6)"/><use xlink:href="#l" transform="matrix(1,0,0,1,292,1027.9) translate(59.95000000000002 25.6)"/><use xlink:href="#m" transform="matrix(1,0,0,1,292,1027.9) translate(262.6 25.6)"/><use xlink:href="#n" transform="matrix(1,0,0,1,292,1027.9) translate(272.6 25.6)"/></g><path d="M1040 840h360v199h-360z" stroke="#333" stroke-width="2" fill="#fff"/><path d="M1040 877.6h360m-360 102.3h360" stroke="#333" stroke-width="2" fill="none"/><g><use xlink:href="#S" transform="matrix(1,0,0,1,1048,848) translate(130.1 14.6)"/></g><g><use xlink:href="#T" transform="matrix(1,0,0,1,1052,885.6) translate(73.17500000000001 25.5)"/><use xlink:href="#U" transform="matrix(1,0,0,1,1052,885.6) translate(243.875 25.5)"/><use xlink:href="#V" transform="matrix(1,0,0,1,1052,885.6) translate(30.725000000000023 47.1)"/><use xlink:href="#U" transform="matrix(1,0,0,1,1052,885.6) translate(286.325 47.1)"/><use xlink:href="#W" transform="matrix(1,0,0,1,1052,885.6) translate(67.67500000000003 68.7)"/><use xlink:href="#G" transform="matrix(1,0,0,1,1052,885.6) translate(249.375 68.7)"/></g><g><use xlink:href="#k" transform="matrix(1,0,0,1,1052,987.9) translate(44.45000000000002 25.6)"/><use xlink:href="#l" transform="matrix(1,0,0,1,1052,987.9) translate(59.95000000000002 25.6)"/><use xlink:href="#m" transform="matrix(1,0,0,1,1052,987.9) translate(262.6 25.6)"/><use xlink:href="#n" transform="matrix(1,0,0,1,1052,987.9) translate(272.6 25.6)"/></g><path d="M1160 472h360v221h-360z" stroke="#333" stroke-width="2" fill="#fff"/><path d="M1160 509.6h360m-360 123.9h360" stroke="#333" stroke-width="2" fill="none"/><g><use xlink:href="#X" transform="matrix(1,0,0,1,1168,480) translate(128.575 14.6)"/></g><g><use xlink:href="#d" transform="matrix(1,0,0,1,1172,517.6) translate(24.700000000000017 25.19999999999999)"/><use xlink:href="#Y" transform="matrix(1,0,0,1,1172,517.6) translate(35.65000000000002 25.19999999999999)"/><use xlink:href="#f" transform="matrix(1,0,0,1,1172,517.6) translate(282.35 25.19999999999999)"/><use xlink:href="#B" transform="matrix(1,0,0,1,1172,517.6) translate(292.35 25.19999999999999)"/><use xlink:href="#d" transform="matrix(1,0,0,1,1172,517.6) translate(73.67500000000001 46.79999999999999)"/><use xlink:href="#Z" transform="matrix(1,0,0,1,1172,517.6) translate(84.62500000000001 46.79999999999999)"/><use xlink:href="#f" transform="matrix(1,0,0,1,1172,517.6) translate(233.375 46.79999999999999)"/><use xlink:href="#B" transform="matrix(1,0,0,1,1172,517.6) translate(243.375 46.79999999999999)"/><use xlink:href="#d" transform="matrix(1,0,0,1,1172,517.6) translate(57.70000000000002 68.39999999999999)"/><use xlink:href="#aa" transform="matrix(1,0,0,1,1172,517.6) translate(68.65000000000002 68.39999999999999)"/><use xlink:href="#f" transform="matrix(1,0,0,1,1172,517.6) translate(249.35 68.39999999999999)"/><use xlink:href="#B" transform="matrix(1,0,0,1,1172,517.6) translate(259.35 68.39999999999999)"/><use xlink:href="#d" transform="matrix(1,0,0,1,1172,517.6) translate(8.725000000000023 90)"/><use xlink:href="#ab" transform="matrix(1,0,0,1,1172,517.6) translate(19.675000000000022 90)"/><use xlink:href="#f" transform="matrix(1,0,0,1,1172,517.6) translate(298.325 90)"/><use xlink:href="#U" transform="matrix(1,0,0,1,1172,517.6) translate(308.325 90)"/></g><g><use xlink:href="#k" transform="matrix(1,0,0,1,1172,641.5) translate(44.45000000000002 25.6)"/><use xlink:href="#l" transform="matrix(1,0,0,1,1172,641.5) translate(59.95000000000002 25.6)"/><use xlink:href="#m" transform="matrix(1,0,0,1,1172,641.5) translate(262.6 25.6)"/><use xlink:href="#n" transform="matrix(1,0,0,1,1172,641.5) translate(272.6 25.6)"/></g><path d="M481.5 582.5H558a12 12 0 0 1 12 12v33a12 12 0 0 0 12 12h54" stroke="#333" fill="none"/><path d="M481.5 583h-.5v-1h.5z" stroke="#333" stroke-width=".05" fill="#333"/><path d="M658.02 639.5l-21.52 12.73v-25.46z" stroke="#333" fill="#fff"/><path d="M460 878.5v-57a12 12 0 0 1 12-12h251.33a12 12 0 0 0 12-12V763" stroke="#333" fill="none"/><path d="M460.5 879h-1v-.5h1z" stroke="#333" stroke-width=".05" fill="#333"/><path d="M735.33 740.98l12.73 21.52H722.6z" stroke="#333" fill="#fff"/><path d="M1038.5 939.5H934.54a12 12 0 0 1-12-12V763" stroke="#333" fill="none"/><path d="M1039 940h-.5v-1h.5z" stroke="#333" stroke-width=".05" fill="#333"/><path d="M922.54 740.98l12.72 21.52H909.8z" stroke="#333" fill="#fff"/><path d="M1158.5 582.5H1102a12 12 0 0 0-12 12v33a12 12 0 0 1-12 12h-34" stroke="#333" fill="none"/><path d="M1159 583h-.5v-1h.5z" stroke="#333" stroke-width=".05" fill="#333"/><path d="M1021.98 639.5l21.52-12.73v25.46z" stroke="#333" fill="#fff"/><defs><path fill="#333" d="M199 0l-22-63H83L61 0H9l90-248h61L250 0h-51zm-33-102l-36-108c-10 38-24 72-36 108h72" id="ac"/><path fill="#333" d="M135-194c52 0 70 43 70 98 0 56-19 99-73 100-30 1-46-15-58-35L72 0H24l1-261h50v104c11-23 29-37 60-37zM114-30c31 0 40-27 40-66 0-37-7-63-39-63s-41 28-41 65c0 36 8 64 40 64" id="ad"/><path fill="#333" d="M137-138c1-29-70-34-71-4 15 46 118 7 119 86 1 83-164 76-172 9l43-7c4 19 20 25 44 25 33 8 57-30 24-41C81-84 22-81 20-136c-2-80 154-74 161-7" id="ae"/><path fill="#333" d="M115-3C79 11 28 4 28-45v-112H4v-33h27l15-45h31v45h36v33H77v99c-1 23 16 31 38 25v30" id="af"/><path fill="#333" d="M135-150c-39-12-60 13-60 57V0H25l-1-190h47c2 13-1 29 3 40 6-28 27-53 61-41v41" id="ag"/><path fill="#333" d="M133-34C117-15 103 5 69 4 32 3 11-16 11-54c-1-60 55-63 116-61 1-26-3-47-28-47-18 1-26 9-28 27l-52-2c7-38 36-58 82-57s74 22 75 68l1 82c-1 14 12 18 25 15v27c-30 8-71 5-69-32zm-48 3c29 0 43-24 42-57-32 0-66-3-65 30 0 17 8 27 23 27" id="ah"/><path fill="#333" d="M190-63c-7 42-38 67-86 67-59 0-84-38-90-98-12-110 154-137 174-36l-49 2c-2-19-15-32-35-32-30 0-35 28-38 64-6 74 65 87 74 30" id="ai"/><g id="a"><use transform="matrix(0.05,0,0,0.05,0,0)" xlink:href="#ac"/><use transform="matrix(0.05,0,0,0.05,12.950000000000001,0)" xlink:href="#ad"/><use transform="matrix(0.05,0,0,0.05,23.900000000000002,0)" xlink:href="#ae"/><use transform="matrix(0.05,0,0,0.05,33.900000000000006,0)" xlink:href="#af"/><use transform="matrix(0.05,0,0,0.05,39.85000000000001,0)" xlink:href="#ag"/><use transform="matrix(0.05,0,0,0.05,46.85000000000001,0)" xlink:href="#ah"/><use transform="matrix(0.05,0,0,0.05,56.85,0)" xlink:href="#ai"/><use transform="matrix(0.05,0,0,0.05,66.85000000000001,0)" xlink:href="#af"/></g><path fill="#333" d="M135-194c87-1 58 113 63 194h-50c-7-57 23-157-34-157-59 0-34 97-39 157H25l-1-190h47c2 12-1 28 3 38 12-26 28-41 61-42" id="aj"/><path fill="#333" d="M25-224v-37h50v37H25zM25 0v-190h50V0H25" id="ak"/><path fill="#333" d="M220-157c-53 9-28 100-34 157h-49v-107c1-27-5-49-29-50C55-147 81-57 75 0H25l-1-190h47c2 12-1 28 3 38 10-53 101-56 108 0 13-22 24-43 59-42 82 1 51 116 57 194h-49v-107c-1-25-5-48-29-50" id="al"/><path fill="#333" d="M25 0v-261h50V0H25" id="am"/><g id="b"><use transform="matrix(0.05,0,0,0.05,0,0)" xlink:href="#ac"/><use transform="matrix(0.05,0,0,0.05,12.950000000000001,0)" xlink:href="#aj"/><use transform="matrix(0.05,0,0,0.05,23.900000000000002,0)" xlink:href="#ak"/><use transform="matrix(0.05,0,0,0.05,28.900000000000002,0)" xlink:href="#al"/><use transform="matrix(0.05,0,0,0.05,44.900000000000006,0)" xlink:href="#ah"/><use transform="matrix(0.05,0,0,0.05,54.900000000000006,0)" xlink:href="#am"/></g><path fill="#333" d="M186 0v-106H76V0H24v-248h52v99h110v-99h50V0h-50" id="an"/><path fill="#333" d="M110-194c64 0 96 36 96 99 0 64-35 99-97 99-61 0-95-36-95-99 0-62 34-99 96-99zm-1 164c35 0 45-28 45-65 0-40-10-65-43-65-34 0-45 26-45 65 0 36 10 65 43 65" id="ao"/><path fill="#333" d="M185-48c-13 30-37 53-82 52C43 2 14-33 14-96s30-98 90-98c62 0 83 45 84 108H66c0 31 8 55 39 56 18 0 30-7 34-22zm-45-69c5-46-57-63-70-21-2 6-4 13-4 21h74" id="ap"/><g id="c"><use transform="matrix(0.05,0,0,0.05,0,0)" xlink:href="#an"/><use transform="matrix(0.05,0,0,0.05,12.950000000000001,0)" xlink:href="#ao"/><use transform="matrix(0.05,0,0,0.05,23.900000000000002,0)" xlink:href="#al"/><use transform="matrix(0.05,0,0,0.05,39.900000000000006,0)" xlink:href="#ap"/></g><path fill="#333" d="M16-82v-28h88v28H16" id="aq"/><use transform="matrix(0.05,0,0,0.05,0,0)" xlink:href="#aq" id="d"/><path fill="#333" d="M117-194c89-4 53 116 60 194h-32v-121c0-31-8-49-39-48C34-167 62-67 57 0H25l-1-190h30c1 10-1 24 2 32 11-22 29-35 61-36" id="ar"/><path fill="#333" d="M141-36C126-15 110 5 73 4 37 3 15-17 15-53c-1-64 63-63 125-63 3-35-9-54-41-54-24 1-41 7-42 31l-33-3c5-37 33-52 76-52 45 0 72 20 72 64v82c-1 20 7 32 28 27v20c-31 9-61-2-59-35zM48-53c0 20 12 33 32 33 41-3 63-29 60-74-43 2-92-5-92 41" id="as"/><path fill="#333" d="M210-169c-67 3-38 105-44 169h-31v-121c0-29-5-50-35-48C34-165 62-65 56 0H25l-1-190h30c1 10-1 24 2 32 10-44 99-50 107 0 11-21 27-35 58-36 85-2 47 119 55 194h-31v-121c0-29-5-49-35-48" id="at"/><path fill="#333" d="M100-194c63 0 86 42 84 106H49c0 40 14 67 53 68 26 1 43-12 49-29l28 8c-11 28-37 45-77 45C44 4 14-33 15-96c1-61 26-98 85-98zm52 81c6-60-76-77-97-28-3 7-6 17-6 28h103" id="au"/><g id="e"><use transform="matrix(0.05,0,0,0.05,0,0)" xlink:href="#ar"/><use transform="matrix(0.05,0,0,0.05,10,0)" xlink:href="#as"/><use transform="matrix(0.05,0,0,0.05,20,0)" xlink:href="#at"/><use transform="matrix(0.05,0,0,0.05,34.95,0)" xlink:href="#au"/></g><path fill="#333" d="M33-154v-36h34v36H33zM33 0v-36h34V0H33" id="av"/><use transform="matrix(0.05,0,0,0.05,0,0)" xlink:href="#av" id="f"/><path fill="#333" d="M185-189c-5-48-123-54-124 2 14 75 158 14 163 119 3 78-121 87-175 55-17-10-28-26-33-46l33-7c5 56 141 63 141-1 0-78-155-14-162-118-5-82 145-84 179-34 5 7 8 16 11 25" id="aw"/><path fill="#333" d="M59-47c-2 24 18 29 38 22v24C64 9 27 4 27-40v-127H5v-23h24l9-43h21v43h35v23H59v120" id="ax"/><path fill="#333" d="M114-163C36-179 61-72 57 0H25l-1-190h30c1 12-1 29 2 39 6-27 23-49 58-41v29" id="ay"/><path fill="#333" d="M24-231v-30h32v30H24zM24 0v-190h32V0H24" id="az"/><path fill="#333" d="M177-190C167-65 218 103 67 71c-23-6-38-20-44-43l32-5c15 47 100 32 89-28v-30C133-14 115 1 83 1 29 1 15-40 15-95c0-56 16-97 71-98 29-1 48 16 59 35 1-10 0-23 2-32h30zM94-22c36 0 50-32 50-73 0-42-14-75-50-75-39 0-46 34-46 75s6 73 46 73" id="aA"/><g id="g"><use transform="matrix(0.05,0,0,0.05,0,0)" xlink:href="#aw"/><use transform="matrix(0.05,0,0,0.05,12,0)" xlink:href="#ax"/><use transform="matrix(0.05,0,0,0.05,17,0)" xlink:href="#ay"/><use transform="matrix(0.05,0,0,0.05,22.95,0)" xlink:href="#az"/><use transform="matrix(0.05,0,0,0.05,26.899999999999995,0)" xlink:href="#ar"/><use transform="matrix(0.05,0,0,0.05,36.9,0)" xlink:href="#aA"/></g><path fill="#333" d="M24 0v-261h32V0H24" id="aB"/><path fill="#333" d="M100-194c62-1 85 37 85 99 1 63-27 99-86 99S16-35 15-95c0-66 28-99 85-99zM99-20c44 1 53-31 53-75 0-43-8-75-51-75s-53 32-53 75 10 74 51 75" id="aC"/><path fill="#333" d="M96-169c-40 0-48 33-48 73s9 75 48 75c24 0 41-14 43-38l32 2c-6 37-31 61-74 61-59 0-76-41-82-99-10-93 101-131 147-64 4 7 5 14 7 22l-32 3c-4-21-16-35-41-35" id="aD"/><g id="h"><use transform="matrix(0.05,0,0,0.05,0,0)" xlink:href="#aB"/><use transform="matrix(0.05,0,0,0.05,3.95,0)" xlink:href="#aC"/><use transform="matrix(0.05,0,0,0.05,13.949999999999998,0)" xlink:href="#aD"/><use transform="matrix(0.05,0,0,0.05,22.95,0)" xlink:href="#as"/><use transform="matrix(0.05,0,0,0.05,32.95,0)" xlink:href="#ax"/><use transform="matrix(0.05,0,0,0.05,37.95,0)" xlink:href="#az"/><use transform="matrix(0.05,0,0,0.05,41.900000000000006,0)" xlink:href="#aC"/><use transform="matrix(0.05,0,0,0.05,51.900000000000006,0)" xlink:href="#ar"/></g><g id="i"><use transform="matrix(0.05,0,0,0.05,0,0)" xlink:href="#as"/><use transform="matrix(0.05,0,0,0.05,10,0)" xlink:href="#ay"/><use transform="matrix(0.05,0,0,0.05,15.949999999999998,0)" xlink:href="#au"/><use transform="matrix(0.05,0,0,0.05,25.950000000000003,0)" xlink:href="#as"/></g><path fill="#333" d="M85-194c31 0 48 13 60 33l-1-100h32l1 261h-30c-2-10 0-23-3-31C134-8 116 4 85 4 32 4 16-35 15-94c0-66 23-100 70-100zm9 24c-40 0-46 34-46 75 0 40 6 74 45 74 42 0 51-32 51-76 0-42-9-74-50-73" id="aE"/><path fill="#333" d="M84 4C-5 8 30-112 23-190h32v120c0 31 7 50 39 49 72-2 45-101 50-169h31l1 190h-30c-1-10 1-25-2-33-11 22-28 36-60 37" id="aF"/><path fill="#333" d="M115-194c53 0 69 39 70 98 0 66-23 100-70 100C84 3 66-7 56-30L54 0H23l1-261h32v101c10-23 28-34 59-34zm-8 174c40 0 45-34 45-75 0-40-5-75-45-74-42 0-51 32-51 76 0 43 10 73 51 73" id="aG"/><g id="j"><use transform="matrix(0.05,0,0,0.05,0,0)" xlink:href="#aE"/><use transform="matrix(0.05,0,0,0.05,10,0)" xlink:href="#aC"/><use transform="matrix(0.05,0,0,0.05,20,0)" xlink:href="#aF"/><use transform="matrix(0.05,0,0,0.05,30,0)" xlink:href="#aG"/><use transform="matrix(0.05,0,0,0.05,40,0)" xlink:href="#aB"/><use transform="matrix(0.05,0,0,0.05,43.95,0)" xlink:href="#au"/></g><path fill="#333" d="M118-107v75H92v-75H18v-26h74v-75h26v75h74v26h-74" id="aH"/><use transform="matrix(0.05,0,0,0.05,0,0)" xlink:href="#aH" id="k"/><path fill="#333" d="M212-179c-10-28-35-45-73-45-59 0-87 40-87 99 0 60 29 101 89 101 43 0 62-24 78-52l27 14C228-24 195 4 139 4 59 4 22-46 18-125c-6-104 99-153 187-111 19 9 31 26 39 46" id="aI"/><path fill="#333" d="M135-143c-3-34-86-38-87 0 15 53 115 12 119 90S17 21 10-45l28-5c4 36 97 45 98 0-10-56-113-15-118-90-4-57 82-63 122-42 12 7 21 19 24 35" id="aJ"/><path fill="#333" d="M30-248c87 1 191-15 191 75 0 78-77 80-158 76V0H30v-248zm33 125c57 0 124 11 124-50 0-59-68-47-124-48v98" id="aK"/><path fill="#333" d="M240 0l2-218c-23 76-54 145-80 218h-23L58-218 59 0H30v-248h44l77 211c21-75 51-140 76-211h43V0h-30" id="aL"/><path fill="#333" d="M106-169C34-169 62-67 57 0H25v-261h32l-1 103c12-21 28-36 61-36 89 0 53 116 60 194h-32v-121c2-32-8-49-39-48" id="aM"/><path fill="#333" d="M87 75C49 33 22-17 22-94c0-76 28-126 65-167h31c-38 41-64 92-64 168S80 34 118 75H87" id="aN"/><path fill="#333" d="M33-261c38 41 65 92 65 168S71 34 33 75H2C39 34 66-17 66-93S39-220 2-261h31" id="aO"/><g id="l"><use transform="matrix(0.05,0,0,0.05,0,0)" xlink:href="#aD"/><use transform="matrix(0.05,0,0,0.05,9,0)" xlink:href="#as"/><use transform="matrix(0.05,0,0,0.05,19,0)" xlink:href="#aB"/><use transform="matrix(0.05,0,0,0.05,22.95,0)" xlink:href="#aD"/><use transform="matrix(0.05,0,0,0.05,31.950000000000003,0)" xlink:href="#aF"/><use transform="matrix(0.05,0,0,0.05,41.95,0)" xlink:href="#aB"/><use transform="matrix(0.05,0,0,0.05,45.900000000000006,0)" xlink:href="#as"/><use transform="matrix(0.05,0,0,0.05,55.900000000000006,0)" xlink:href="#ax"/><use transform="matrix(0.05,0,0,0.05,60.900000000000006,0)" xlink:href="#au"/><use transform="matrix(0.05,0,0,0.05,70.9,0)" xlink:href="#aI"/><use transform="matrix(0.05,0,0,0.05,83.85000000000001,0)" xlink:href="#aC"/><use transform="matrix(0.05,0,0,0.05,93.85000000000001,0)" xlink:href="#aJ"/><use transform="matrix(0.05,0,0,0.05,102.85000000000001,0)" xlink:href="#ax"/><use transform="matrix(0.05,0,0,0.05,107.85000000000001,0)" xlink:href="#aK"/><use transform="matrix(0.05,0,0,0.05,119.85000000000001,0)" xlink:href="#au"/><use transform="matrix(0.05,0,0,0.05,129.85000000000002,0)" xlink:href="#ay"/><use transform="matrix(0.05,0,0,0.05,135.8,0)" xlink:href="#aL"/><use transform="matrix(0.05,0,0,0.05,150.75,0)" xlink:href="#aC"/><use transform="matrix(0.05,0,0,0.05,160.75,0)" xlink:href="#ar"/><use transform="matrix(0.05,0,0,0.05,170.75,0)" xlink:href="#ax"/><use transform="matrix(0.05,0,0,0.05,175.75,0)" xlink:href="#aM"/><use transform="matrix(0.05,0,0,0.05,185.75,0)" xlink:href="#aN"/><use transform="matrix(0.05,0,0,0.05,191.7,0)" xlink:href="#aO"/></g><use transform="matrix(0.05,0,0,0.05,0,0)" xlink:href="#av" id="m"/><g id="n"><use transform="matrix(0.05,0,0,0.05,0,0)" xlink:href="#az"/><use transform="matrix(0.05,0,0,0.05,3.95,0)" xlink:href="#ar"/><use transform="matrix(0.05,0,0,0.05,13.949999999999998,0)" xlink:href="#ax"/></g><g id="o"><use transform="matrix(0.05,0,0,0.05,0,0)" xlink:href="#ac"/><use transform="matrix(0.05,0,0,0.05,12.950000000000001,0)" xlink:href="#aj"/><use transform="matrix(0.05,0,0,0.05,23.900000000000002,0)" xlink:href="#ak"/><use transform="matrix(0.05,0,0,0.05,28.900000000000002,0)" xlink:href="#al"/><use transform="matrix(0.05,0,0,0.05,44.900000000000006,0)" xlink:href="#ah"/><use transform="matrix(0.05,0,0,0.05,54.900000000000006,0)" xlink:href="#am"/></g><g id="p"><use transform="matrix(0.05,0,0,0.05,0,0)" xlink:href="#an"/><use transform="matrix(0.05,0,0,0.05,12.950000000000001,0)" xlink:href="#ao"/><use transform="matrix(0.05,0,0,0.05,23.900000000000002,0)" xlink:href="#al"/><use transform="matrix(0.05,0,0,0.05,39.900000000000006,0)" xlink:href="#ap"/></g><path fill="#333" d="M230 0l2-204L168 0h-37L68-204 70 0H24v-248h70l56 185 57-185h69V0h-46" id="aP"/><path fill="#333" d="M195-6C206 82 75 100 31 46c-4-6-6-13-8-21l49-6c3 16 16 24 34 25 40 0 42-37 40-79-11 22-30 35-61 35-53 0-70-43-70-97 0-56 18-96 73-97 30 0 46 14 59 34l2-30h47zm-90-29c32 0 41-27 41-63 0-35-9-62-40-62-32 0-39 29-40 63 0 36 9 62 39 62" id="aQ"/><g id="q"><use transform="matrix(0.05,0,0,0.05,0,0)" xlink:href="#aP"/><use transform="matrix(0.05,0,0,0.05,14.950000000000001,0)" xlink:href="#ah"/><use transform="matrix(0.05,0,0,0.05,24.950000000000003,0)" xlink:href="#aj"/><use transform="matrix(0.05,0,0,0.05,35.900000000000006,0)" xlink:href="#ah"/><use transform="matrix(0.05,0,0,0.05,45.900000000000006,0)" xlink:href="#aQ"/><use transform="matrix(0.05,0,0,0.05,56.85,0)" xlink:href="#ap"/><use transform="matrix(0.05,0,0,0.05,66.85000000000001,0)" xlink:href="#ag"/></g><g id="r"><use transform="matrix(0.05,0,0,0.05,0,0)" xlink:href="#as"/><use transform="matrix(0.05,0,0,0.05,10,0)" xlink:href="#ar"/><use transform="matrix(0.05,0,0,0.05,20,0)" xlink:href="#az"/><use transform="matrix(0.05,0,0,0.05,23.95,0)" xlink:href="#at"/><use transform="matrix(0.05,0,0,0.05,38.9,0)" xlink:href="#as"/><use transform="matrix(0.05,0,0,0.05,48.9,0)" xlink:href="#aB"/><use transform="matrix(0.05,0,0,0.05,52.85,0)" xlink:href="#aM"/><use transform="matrix(0.05,0,0,0.05,62.85,0)" xlink:href="#aC"/><use transform="matrix(0.05,0,0,0.05,72.85,0)" xlink:href="#at"/><use transform="matrix(0.05,0,0,0.05,87.8,0)" xlink:href="#au"/><use transform="matrix(0.05,0,0,0.05,97.8,0)" xlink:href="#aJ"/></g><path fill="#333" d="M30 0v-248h33v221h125V0H30" id="aR"/><path fill="#333" d="M18-100v-36l175-74v27L42-118l151 64v27" id="aS"/><path fill="#333" d="M205 0l-28-72H64L36 0H1l101-248h38L239 0h-34zm-38-99l-47-123c-12 45-31 82-46 123h93" id="aT"/><path fill="#333" d="M197 0v-115H63V0H30v-248h33v105h134v-105h34V0h-34" id="aU"/><path fill="#333" d="M18-27v-27l151-64-151-65v-27l175 74v36" id="aV"/><g id="s"><use transform="matrix(0.05,0,0,0.05,0,0)" xlink:href="#aR"/><use transform="matrix(0.05,0,0,0.05,10,0)" xlink:href="#az"/><use transform="matrix(0.05,0,0,0.05,13.949999999999998,0)" xlink:href="#aJ"/><use transform="matrix(0.05,0,0,0.05,22.95,0)" xlink:href="#ax"/><use transform="matrix(0.05,0,0,0.05,27.950000000000003,0)" xlink:href="#aS"/><use transform="matrix(0.05,0,0,0.05,38.45,0)" xlink:href="#aT"/><use transform="matrix(0.05,0,0,0.05,50.45,0)" xlink:href="#aG"/><use transform="matrix(0.05,0,0,0.05,60.45,0)" xlink:href="#aJ"/><use transform="matrix(0.05,0,0,0.05,69.45,0)" xlink:href="#ax"/><use transform="matrix(0.05,0,0,0.05,74.45,0)" xlink:href="#ay"/><use transform="matrix(0.05,0,0,0.05,80.4,0)" xlink:href="#as"/><use transform="matrix(0.05,0,0,0.05,90.4,0)" xlink:href="#aD"/><use transform="matrix(0.05,0,0,0.05,99.4,0)" xlink:href="#ax"/><use transform="matrix(0.05,0,0,0.05,104.4,0)" xlink:href="#aT"/><use transform="matrix(0.05,0,0,0.05,116.4,0)" xlink:href="#ar"/><use transform="matrix(0.05,0,0,0.05,126.4,0)" xlink:href="#az"/><use transform="matrix(0.05,0,0,0.05,130.35,0)" xlink:href="#at"/><use transform="matrix(0.05,0,0,0.05,145.29999999999998,0)" xlink:href="#as"/><use transform="matrix(0.05,0,0,0.05,155.29999999999998,0)" xlink:href="#aB"/><use transform="matrix(0.05,0,0,0.05,159.24999999999997,0)" xlink:href="#aU"/><use transform="matrix(0.05,0,0,0.05,172.19999999999996,0)" xlink:href="#aC"/><use transform="matrix(0.05,0,0,0.05,182.19999999999996,0)" xlink:href="#at"/><use transform="matrix(0.05,0,0,0.05,197.14999999999995,0)" xlink:href="#au"/><use transform="matrix(0.05,0,0,0.05,207.14999999999998,0)" xlink:href="#aV"/></g><path fill="#333" d="M101-234c-31-9-42 10-38 44h38v23H63V0H32v-167H5v-23h27c-7-52 17-82 69-68v24" id="aW"/><path fill="#333" d="M266 0h-40l-56-210L115 0H75L2-248h35L96-30l15-64 43-154h32l59 218 59-218h35" id="aX"/><path fill="#333" d="M127-220V0H93v-220H8v-28h204v28h-85" id="aY"/><g id="t"><use transform="matrix(0.05,0,0,0.05,0,0)" xlink:href="#aW"/><use transform="matrix(0.05,0,0,0.05,5,0)" xlink:href="#az"/><use transform="matrix(0.05,0,0,0.05,8.95,0)" xlink:href="#ar"/><use transform="matrix(0.05,0,0,0.05,18.95,0)" xlink:href="#aE"/><use transform="matrix(0.05,0,0,0.05,28.950000000000003,0)" xlink:href="#aT"/><use transform="matrix(0.05,0,0,0.05,40.95,0)" xlink:href="#ar"/><use transform="matrix(0.05,0,0,0.05,50.95,0)" xlink:href="#az"/><use transform="matrix(0.05,0,0,0.05,54.900000000000006,0)" xlink:href="#at"/><use transform="matrix(0.05,0,0,0.05,69.85000000000001,0)" xlink:href="#as"/><use transform="matrix(0.05,0,0,0.05,79.85000000000001,0)" xlink:href="#aB"/><use transform="matrix(0.05,0,0,0.05,83.80000000000001,0)" xlink:href="#aU"/><use transform="matrix(0.05,0,0,0.05,96.75000000000001,0)" xlink:href="#aC"/><use transform="matrix(0.05,0,0,0.05,106.75,0)" xlink:href="#at"/><use transform="matrix(0.05,0,0,0.05,121.7,0)" xlink:href="#au"/><use transform="matrix(0.05,0,0,0.05,131.70000000000002,0)" xlink:href="#aJ"/><use transform="matrix(0.05,0,0,0.05,140.70000000000002,0)" xlink:href="#aX"/><use transform="matrix(0.05,0,0,0.05,157.65,0)" xlink:href="#az"/><use transform="matrix(0.05,0,0,0.05,161.6,0)" xlink:href="#ax"/><use transform="matrix(0.05,0,0,0.05,166.6,0)" xlink:href="#aM"/><use transform="matrix(0.05,0,0,0.05,176.6,0)" xlink:href="#aT"/><use transform="matrix(0.05,0,0,0.05,188.6,0)" xlink:href="#ay"/><use transform="matrix(0.05,0,0,0.05,194.54999999999998,0)" xlink:href="#au"/><use transform="matrix(0.05,0,0,0.05,204.54999999999998,0)" xlink:href="#as"/><use transform="matrix(0.05,0,0,0.05,214.54999999999995,0)" xlink:href="#aR"/><use transform="matrix(0.05,0,0,0.05,224.54999999999995,0)" xlink:href="#au"/><use transform="matrix(0.05,0,0,0.05,234.54999999999995,0)" xlink:href="#aJ"/><use transform="matrix(0.05,0,0,0.05,243.54999999999995,0)" xlink:href="#aJ"/><use transform="matrix(0.05,0,0,0.05,252.54999999999995,0)" xlink:href="#aY"/><use transform="matrix(0.05,0,0,0.05,263.5,0)" xlink:href="#aM"/><use transform="matrix(0.05,0,0,0.05,273.5,0)" xlink:href="#as"/><use transform="matrix(0.05,0,0,0.05,283.5,0)" xlink:href="#ar"/><use transform="matrix(0.05,0,0,0.05,293.5,0)" xlink:href="#aN"/><use transform="matrix(0.05,0,0,0.05,299.45,0)" xlink:href="#aE"/><use transform="matrix(0.05,0,0,0.05,309.45,0)" xlink:href="#aC"/><use transform="matrix(0.05,0,0,0.05,319.45,0)" xlink:href="#aF"/><use transform="matrix(0.05,0,0,0.05,329.45,0)" xlink:href="#aG"/><use transform="matrix(0.05,0,0,0.05,339.45,0)" xlink:href="#aB"/><use transform="matrix(0.05,0,0,0.05,343.4,0)" xlink:href="#au"/><use transform="matrix(0.05,0,0,0.05,353.4,0)" xlink:href="#aO"/></g><g id="u"><use transform="matrix(0.05,0,0,0.05,0,0)" xlink:href="#aR"/><use transform="matrix(0.05,0,0,0.05,10,0)" xlink:href="#az"/><use transform="matrix(0.05,0,0,0.05,13.949999999999998,0)" xlink:href="#aJ"/><use transform="matrix(0.05,0,0,0.05,22.95,0)" xlink:href="#ax"/><use transform="matrix(0.05,0,0,0.05,27.950000000000003,0)" xlink:href="#aS"/><use transform="matrix(0.05,0,0,0.05,38.45,0)" xlink:href="#aT"/><use transform="matrix(0.05,0,0,0.05,50.45,0)" xlink:href="#aG"/><use transform="matrix(0.05,0,0,0.05,60.45,0)" xlink:href="#aJ"/><use transform="matrix(0.05,0,0,0.05,69.45,0)" xlink:href="#ax"/><use transform="matrix(0.05,0,0,0.05,74.45,0)" xlink:href="#ay"/><use transform="matrix(0.05,0,0,0.05,80.4,0)" xlink:href="#as"/><use transform="matrix(0.05,0,0,0.05,90.4,0)" xlink:href="#aD"/><use transform="matrix(0.05,0,0,0.05,99.4,0)" xlink:href="#ax"/><use transform="matrix(0.05,0,0,0.05,104.4,0)" xlink:href="#aT"/><use transform="matrix(0.05,0,0,0.05,116.4,0)" xlink:href="#ar"/><use transform="matrix(0.05,0,0,0.05,126.4,0)" xlink:href="#az"/><use transform="matrix(0.05,0,0,0.05,130.35,0)" xlink:href="#at"/><use transform="matrix(0.05,0,0,0.05,145.29999999999998,0)" xlink:href="#as"/><use transform="matrix(0.05,0,0,0.05,155.29999999999998,0)" xlink:href="#aB"/><use transform="matrix(0.05,0,0,0.05,159.24999999999997,0)" xlink:href="#aU"/><use transform="matrix(0.05,0,0,0.05,172.19999999999996,0)" xlink:href="#aC"/><use transform="matrix(0.05,0,0,0.05,182.19999999999996,0)" xlink:href="#at"/><use transform="matrix(0.05,0,0,0.05,197.14999999999995,0)" xlink:href="#au"/><use transform="matrix(0.05,0,0,0.05,207.14999999999998,0)" xlink:href="#aV"/></g><path fill="#333" d="M115-194c55 1 70 41 70 98S169 2 115 4C84 4 66-9 55-30l1 105H24l-1-265h31l2 30c10-21 28-34 59-34zm-8 174c40 0 45-34 45-75s-6-73-45-74c-42 0-51 32-51 76 0 43 10 73 51 73" id="aZ"/><g id="v"><use transform="matrix(0.05,0,0,0.05,0,0)" xlink:href="#aW"/><use transform="matrix(0.05,0,0,0.05,5,0)" xlink:href="#az"/><use transform="matrix(0.05,0,0,0.05,8.95,0)" xlink:href="#ar"/><use transform="matrix(0.05,0,0,0.05,18.95,0)" xlink:href="#aE"/><use transform="matrix(0.05,0,0,0.05,28.950000000000003,0)" xlink:href="#aI"/><use transform="matrix(0.05,0,0,0.05,41.9,0)" xlink:href="#aM"/><use transform="matrix(0.05,0,0,0.05,51.900000000000006,0)" xlink:href="#au"/><use transform="matrix(0.05,0,0,0.05,61.900000000000006,0)" xlink:href="#as"/><use transform="matrix(0.05,0,0,0.05,71.9,0)" xlink:href="#aZ"/><use transform="matrix(0.05,0,0,0.05,81.9,0)" xlink:href="#au"/><use transform="matrix(0.05,0,0,0.05,91.9,0)" xlink:href="#aJ"/><use transform="matrix(0.05,0,0,0.05,100.9,0)" xlink:href="#ax"/><use transform="matrix(0.05,0,0,0.05,105.9,0)" xlink:href="#aT"/><use transform="matrix(0.05,0,0,0.05,117.9,0)" xlink:href="#ar"/><use transform="matrix(0.05,0,0,0.05,127.9,0)" xlink:href="#az"/><use transform="matrix(0.05,0,0,0.05,131.85,0)" xlink:href="#at"/><use transform="matrix(0.05,0,0,0.05,146.79999999999998,0)" xlink:href="#as"/><use transform="matrix(0.05,0,0,0.05,156.79999999999998,0)" xlink:href="#aB"/><use transform="matrix(0.05,0,0,0.05,160.74999999999997,0)" xlink:href="#aU"/><use transform="matrix(0.05,0,0,0.05,173.69999999999996,0)" xlink:href="#aC"/><use transform="matrix(0.05,0,0,0.05,183.69999999999996,0)" xlink:href="#at"/><use transform="matrix(0.05,0,0,0.05,198.64999999999995,0)" xlink:href="#au"/><use transform="matrix(0.05,0,0,0.05,208.64999999999998,0)" xlink:href="#aN"/><use transform="matrix(0.05,0,0,0.05,214.5999999999999,0)" xlink:href="#aO"/></g><g id="w"><use transform="matrix(0.05,0,0,0.05,0,0)" xlink:href="#aT"/><use transform="matrix(0.05,0,0,0.05,12,0)" xlink:href="#aG"/><use transform="matrix(0.05,0,0,0.05,22,0)" xlink:href="#aJ"/><use transform="matrix(0.05,0,0,0.05,31,0)" xlink:href="#ax"/><use transform="matrix(0.05,0,0,0.05,36,0)" xlink:href="#ay"/><use transform="matrix(0.05,0,0,0.05,41.95,0)" xlink:href="#as"/><use transform="matrix(0.05,0,0,0.05,51.95,0)" xlink:href="#aD"/><use transform="matrix(0.05,0,0,0.05,60.95,0)" xlink:href="#ax"/><use transform="matrix(0.05,0,0,0.05,65.95,0)" xlink:href="#aT"/><use transform="matrix(0.05,0,0,0.05,77.95,0)" xlink:href="#ar"/><use transform="matrix(0.05,0,0,0.05,87.95,0)" xlink:href="#az"/><use transform="matrix(0.05,0,0,0.05,91.9,0)" xlink:href="#at"/><use transform="matrix(0.05,0,0,0.05,106.85000000000001,0)" xlink:href="#as"/><use transform="matrix(0.05,0,0,0.05,116.85000000000001,0)" xlink:href="#aB"/><use transform="matrix(0.05,0,0,0.05,120.80000000000001,0)" xlink:href="#aU"/><use transform="matrix(0.05,0,0,0.05,133.75,0)" xlink:href="#aC"/><use transform="matrix(0.05,0,0,0.05,143.75,0)" xlink:href="#at"/><use transform="matrix(0.05,0,0,0.05,158.7,0)" xlink:href="#au"/></g><g id="x"><use transform="matrix(0.05,0,0,0.05,0,0)" xlink:href="#as"/><use transform="matrix(0.05,0,0,0.05,10,0)" xlink:href="#aE"/><use transform="matrix(0.05,0,0,0.05,20,0)" xlink:href="#aE"/><use transform="matrix(0.05,0,0,0.05,30,0)" xlink:href="#aT"/><use transform="matrix(0.05,0,0,0.05,42,0)" xlink:href="#ar"/><use transform="matrix(0.05,0,0,0.05,52,0)" xlink:href="#az"/><use transform="matrix(0.05,0,0,0.05,55.95,0)" xlink:href="#at"/><use transform="matrix(0.05,0,0,0.05,70.9,0)" xlink:href="#as"/><use transform="matrix(0.05,0,0,0.05,80.9,0)" xlink:href="#aB"/><use transform="matrix(0.05,0,0,0.05,84.85000000000001,0)" xlink:href="#aU"/><use transform="matrix(0.05,0,0,0.05,97.80000000000001,0)" xlink:href="#aC"/><use transform="matrix(0.05,0,0,0.05,107.80000000000001,0)" xlink:href="#at"/><use transform="matrix(0.05,0,0,0.05,122.75,0)" xlink:href="#au"/><use transform="matrix(0.05,0,0,0.05,132.75,0)" xlink:href="#aN"/><use transform="matrix(0.05,0,0,0.05,138.7,0)" xlink:href="#aT"/><use transform="matrix(0.05,0,0,0.05,150.7,0)" xlink:href="#aG"/><use transform="matrix(0.05,0,0,0.05,160.7,0)" xlink:href="#aJ"/><use transform="matrix(0.05,0,0,0.05,169.7,0)" xlink:href="#ax"/><use transform="matrix(0.05,0,0,0.05,174.7,0)" xlink:href="#ay"/><use transform="matrix(0.05,0,0,0.05,180.64999999999998,0)" xlink:href="#as"/><use transform="matrix(0.05,0,0,0.05,190.64999999999998,0)" xlink:href="#aD"/><use transform="matrix(0.05,0,0,0.05,199.64999999999998,0)" xlink:href="#ax"/><use transform="matrix(0.05,0,0,0.05,204.64999999999998,0)" xlink:href="#aT"/><use transform="matrix(0.05,0,0,0.05,216.64999999999998,0)" xlink:href="#ar"/><use transform="matrix(0.05,0,0,0.05,226.64999999999998,0)" xlink:href="#az"/><use transform="matrix(0.05,0,0,0.05,230.59999999999997,0)" xlink:href="#at"/><use transform="matrix(0.05,0,0,0.05,245.54999999999995,0)" xlink:href="#as"/><use transform="matrix(0.05,0,0,0.05,255.54999999999995,0)" xlink:href="#aB"/><use transform="matrix(0.05,0,0,0.05,259.49999999999994,0)" xlink:href="#aU"/><use transform="matrix(0.05,0,0,0.05,272.44999999999993,0)" xlink:href="#aC"/><use transform="matrix(0.05,0,0,0.05,282.44999999999993,0)" xlink:href="#at"/><use transform="matrix(0.05,0,0,0.05,297.3999999999999,0)" xlink:href="#au"/><use transform="matrix(0.05,0,0,0.05,307.3999999999999,0)" xlink:href="#aO"/></g><path fill="#333" d="M108 0H70L1-190h34L89-25l56-165h34" id="ba"/><g id="y"><use transform="matrix(0.05,0,0,0.05,0,0)" xlink:href="#ba"/><use transform="matrix(0.05,0,0,0.05,9,0)" xlink:href="#aC"/><use transform="matrix(0.05,0,0,0.05,19,0)" xlink:href="#az"/><use transform="matrix(0.05,0,0,0.05,22.95,0)" xlink:href="#aE"/></g><path fill="#333" d="M210 0H11v-37l134-170H24v-41h178v36L68-41h142V0" id="bb"/><g id="z"><use transform="matrix(0.05,0,0,0.05,0,0)" xlink:href="#bb"/><use transform="matrix(0.05,0,0,0.05,10.950000000000001,0)" xlink:href="#ao"/><use transform="matrix(0.05,0,0,0.05,21.900000000000002,0)" xlink:href="#ao"/></g><path fill="#333" d="M179-190L93 31C79 59 56 82 12 73V49c39 6 53-20 64-50L1-190h34L92-34l54-156h33" id="bc"/><g id="A"><use transform="matrix(0.05,0,0,0.05,0,0)" xlink:href="#aD"/><use transform="matrix(0.05,0,0,0.05,9,0)" xlink:href="#as"/><use transform="matrix(0.05,0,0,0.05,19,0)" xlink:href="#aZ"/><use transform="matrix(0.05,0,0,0.05,29,0)" xlink:href="#as"/><use transform="matrix(0.05,0,0,0.05,39,0)" xlink:href="#aD"/><use transform="matrix(0.05,0,0,0.05,48,0)" xlink:href="#az"/><use transform="matrix(0.05,0,0,0.05,51.95,0)" xlink:href="#ax"/><use transform="matrix(0.05,0,0,0.05,56.95,0)" xlink:href="#bc"/><use transform="matrix(0.05,0,0,0.05,65.95,0)" xlink:href="#av"/></g><g id="B"><use transform="matrix(0.05,0,0,0.05,0,0)" xlink:href="#az"/><use transform="matrix(0.05,0,0,0.05,3.95,0)" xlink:href="#ar"/><use transform="matrix(0.05,0,0,0.05,13.949999999999998,0)" xlink:href="#ax"/></g><g id="C"><use transform="matrix(0.05,0,0,0.05,0,0)" xlink:href="#aC"/><use transform="matrix(0.05,0,0,0.05,10,0)" xlink:href="#aZ"/><use transform="matrix(0.05,0,0,0.05,20,0)" xlink:href="#au"/><use transform="matrix(0.05,0,0,0.05,30,0)" xlink:href="#ar"/><use transform="matrix(0.05,0,0,0.05,40,0)" xlink:href="#az"/><use transform="matrix(0.05,0,0,0.05,43.95,0)" xlink:href="#ar"/><use transform="matrix(0.05,0,0,0.05,53.95,0)" xlink:href="#aA"/><use transform="matrix(0.05,0,0,0.05,63.95,0)" xlink:href="#aY"/><use transform="matrix(0.05,0,0,0.05,74.25,0)" xlink:href="#az"/><use transform="matrix(0.05,0,0,0.05,78.2,0)" xlink:href="#at"/><use transform="matrix(0.05,0,0,0.05,93.15,0)" xlink:href="#au"/><use transform="matrix(0.05,0,0,0.05,103.15,0)" xlink:href="#av"/></g><g id="D"><use transform="matrix(0.05,0,0,0.05,0,0)" xlink:href="#aY"/><use transform="matrix(0.05,0,0,0.05,10.3,0)" xlink:href="#az"/><use transform="matrix(0.05,0,0,0.05,14.25,0)" xlink:href="#at"/><use transform="matrix(0.05,0,0,0.05,29.200000000000003,0)" xlink:href="#au"/></g><g id="E"><use transform="matrix(0.05,0,0,0.05,0,0)" xlink:href="#aD"/><use transform="matrix(0.05,0,0,0.05,9,0)" xlink:href="#aB"/><use transform="matrix(0.05,0,0,0.05,12.949999999999998,0)" xlink:href="#aC"/><use transform="matrix(0.05,0,0,0.05,22.95,0)" xlink:href="#aJ"/><use transform="matrix(0.05,0,0,0.05,31.950000000000003,0)" xlink:href="#az"/><use transform="matrix(0.05,0,0,0.05,35.9,0)" xlink:href="#ar"/><use transform="matrix(0.05,0,0,0.05,45.9,0)" xlink:href="#aA"/><use transform="matrix(0.05,0,0,0.05,55.900000000000006,0)" xlink:href="#aY"/><use transform="matrix(0.05,0,0,0.05,66.2,0)" xlink:href="#az"/><use transform="matrix(0.05,0,0,0.05,70.15,0)" xlink:href="#at"/><use transform="matrix(0.05,0,0,0.05,85.10000000000001,0)" xlink:href="#au"/><use transform="matrix(0.05,0,0,0.05,95.10000000000001,0)" xlink:href="#av"/></g><path fill="#333" d="M30-248c118-7 216 8 213 122C240-48 200 0 122 0H30v-248zM63-27c89 8 146-16 146-99s-60-101-146-95v194" id="bd"/><g id="F"><use transform="matrix(0.05,0,0,0.05,0,0)" xlink:href="#aD"/><use transform="matrix(0.05,0,0,0.05,9,0)" xlink:href="#aC"/><use transform="matrix(0.05,0,0,0.05,19,0)" xlink:href="#aJ"/><use transform="matrix(0.05,0,0,0.05,28,0)" xlink:href="#ax"/><use transform="matrix(0.05,0,0,0.05,33,0)" xlink:href="#aK"/><use transform="matrix(0.05,0,0,0.05,45,0)" xlink:href="#au"/><use transform="matrix(0.05,0,0,0.05,55,0)" xlink:href="#ay"/><use transform="matrix(0.05,0,0,0.05,60.95,0)" xlink:href="#bd"/><use transform="matrix(0.05,0,0,0.05,73.9,0)" xlink:href="#as"/><use transform="matrix(0.05,0,0,0.05,83.9,0)" xlink:href="#bc"/><use transform="matrix(0.05,0,0,0.05,92.9,0)" xlink:href="#av"/></g><g id="G"><use transform="matrix(0.05,0,0,0.05,0,0)" xlink:href="#az"/><use transform="matrix(0.05,0,0,0.05,3.95,0)" xlink:href="#ar"/><use transform="matrix(0.05,0,0,0.05,13.949999999999998,0)" xlink:href="#ax"/></g><g id="H"><use transform="matrix(0.05,0,0,0.05,0,0)" xlink:href="#az"/><use transform="matrix(0.05,0,0,0.05,3.95,0)" xlink:href="#ar"/><use transform="matrix(0.05,0,0,0.05,13.949999999999998,0)" xlink:href="#aD"/><use transform="matrix(0.05,0,0,0.05,22.95,0)" xlink:href="#ay"/><use transform="matrix(0.05,0,0,0.05,28.899999999999995,0)" xlink:href="#au"/><use transform="matrix(0.05,0,0,0.05,38.9,0)" xlink:href="#as"/><use transform="matrix(0.05,0,0,0.05,48.9,0)" xlink:href="#aJ"/><use transform="matrix(0.05,0,0,0.05,57.900000000000006,0)" xlink:href="#au"/><use transform="matrix(0.05,0,0,0.05,67.9,0)" xlink:href="#aI"/><use transform="matrix(0.05,0,0,0.05,80.85000000000001,0)" xlink:href="#as"/><use transform="matrix(0.05,0,0,0.05,90.85000000000001,0)" xlink:href="#aZ"/><use transform="matrix(0.05,0,0,0.05,100.85000000000001,0)" xlink:href="#as"/><use transform="matrix(0.05,0,0,0.05,110.85000000000001,0)" xlink:href="#aD"/><use transform="matrix(0.05,0,0,0.05,119.85000000000001,0)" xlink:href="#az"/><use transform="matrix(0.05,0,0,0.05,123.80000000000001,0)" xlink:href="#ax"/><use transform="matrix(0.05,0,0,0.05,128.8,0)" xlink:href="#bc"/><use transform="matrix(0.05,0,0,0.05,137.8,0)" xlink:href="#aN"/><use transform="matrix(0.05,0,0,0.05,143.75,0)" xlink:href="#aD"/><use transform="matrix(0.05,0,0,0.05,152.75,0)" xlink:href="#aC"/><use transform="matrix(0.05,0,0,0.05,162.75,0)" xlink:href="#aF"/><use transform="matrix(0.05,0,0,0.05,172.75,0)" xlink:href="#ar"/><use transform="matrix(0.05,0,0,0.05,182.75,0)" xlink:href="#ax"/><use transform="matrix(0.05,0,0,0.05,187.75,0)" xlink:href="#av"/></g><g id="I"><use transform="matrix(0.05,0,0,0.05,0,0)" xlink:href="#az"/><use transform="matrix(0.05,0,0,0.05,3.95,0)" xlink:href="#ar"/><use transform="matrix(0.05,0,0,0.05,13.949999999999998,0)" xlink:href="#ax"/><use transform="matrix(0.05,0,0,0.05,18.95,0)" xlink:href="#aO"/><use transform="matrix(0.05,0,0,0.05,24.9,0)" xlink:href="#av"/></g><g id="J"><use transform="matrix(0.05,0,0,0.05,0,0)" xlink:href="#ba"/><use transform="matrix(0.05,0,0,0.05,9,0)" xlink:href="#aC"/><use transform="matrix(0.05,0,0,0.05,19,0)" xlink:href="#az"/><use transform="matrix(0.05,0,0,0.05,22.95,0)" xlink:href="#aE"/></g><g id="K"><use transform="matrix(0.05,0,0,0.05,0,0)" xlink:href="#aJ"/><use transform="matrix(0.05,0,0,0.05,9,0)" xlink:href="#aZ"/><use transform="matrix(0.05,0,0,0.05,19,0)" xlink:href="#aB"/><use transform="matrix(0.05,0,0,0.05,22.95,0)" xlink:href="#az"/><use transform="matrix(0.05,0,0,0.05,26.899999999999995,0)" xlink:href="#ax"/><use transform="matrix(0.05,0,0,0.05,31.899999999999995,0)" xlink:href="#aT"/><use transform="matrix(0.05,0,0,0.05,43.9,0)" xlink:href="#ay"/><use transform="matrix(0.05,0,0,0.05,49.85,0)" xlink:href="#au"/><use transform="matrix(0.05,0,0,0.05,59.85,0)" xlink:href="#as"/><use transform="matrix(0.05,0,0,0.05,69.85,0)" xlink:href="#aN"/><use transform="matrix(0.05,0,0,0.05,75.8,0)" xlink:href="#aO"/><use transform="matrix(0.05,0,0,0.05,81.75,0)" xlink:href="#av"/></g><path fill="#333" d="M190 0L58-211 59 0H30v-248h39L202-35l-2-213h31V0h-41" id="be"/><path fill="#333" d="M206 0h-36l-40-164L89 0H53L-1-190h32L70-26l43-164h34l41 164 42-164h31" id="bf"/><path fill="#333" d="M233-177c-1 41-23 64-60 70L243 0h-38l-65-103H63V0H30v-248c88 3 205-21 203 71zM63-129c60-2 137 13 137-47 0-61-80-42-137-45v92" id="bg"/><g id="L"><use transform="matrix(0.05,0,0,0.05,0,0)" xlink:href="#as"/><use transform="matrix(0.05,0,0,0.05,10,0)" xlink:href="#aE"/><use transform="matrix(0.05,0,0,0.05,20,0)" xlink:href="#aE"/><use transform="matrix(0.05,0,0,0.05,30,0)" xlink:href="#be"/><use transform="matrix(0.05,0,0,0.05,42.95,0)" xlink:href="#au"/><use transform="matrix(0.05,0,0,0.05,52.95,0)" xlink:href="#bf"/><use transform="matrix(0.05,0,0,0.05,65.9,0)" xlink:href="#bg"/><use transform="matrix(0.05,0,0,0.05,78.85000000000001,0)" xlink:href="#au"/><use transform="matrix(0.05,0,0,0.05,88.85000000000001,0)" xlink:href="#aA"/><use transform="matrix(0.05,0,0,0.05,98.85000000000001,0)" xlink:href="#az"/><use transform="matrix(0.05,0,0,0.05,102.80000000000001,0)" xlink:href="#aC"/><use transform="matrix(0.05,0,0,0.05,112.80000000000001,0)" xlink:href="#ar"/><use transform="matrix(0.05,0,0,0.05,122.80000000000001,0)" xlink:href="#aN"/><use transform="matrix(0.05,0,0,0.05,128.75,0)" xlink:href="#as"/><use transform="matrix(0.05,0,0,0.05,138.75,0)" xlink:href="#ay"/><use transform="matrix(0.05,0,0,0.05,144.7,0)" xlink:href="#au"/><use transform="matrix(0.05,0,0,0.05,154.7,0)" xlink:href="#as"/><use transform="matrix(0.05,0,0,0.05,164.7,0)" xlink:href="#av"/></g><g id="M"><use transform="matrix(0.05,0,0,0.05,0,0)" xlink:href="#aE"/><use transform="matrix(0.05,0,0,0.05,10,0)" xlink:href="#aC"/><use transform="matrix(0.05,0,0,0.05,20,0)" xlink:href="#aF"/><use transform="matrix(0.05,0,0,0.05,30,0)" xlink:href="#aG"/><use transform="matrix(0.05,0,0,0.05,40,0)" xlink:href="#aB"/><use transform="matrix(0.05,0,0,0.05,43.95,0)" xlink:href="#au"/><use transform="matrix(0.05,0,0,0.05,53.95,0)" xlink:href="#aO"/><use transform="matrix(0.05,0,0,0.05,59.900000000000006,0)" xlink:href="#av"/></g><path fill="#333" d="M76-208v77h127v40H76V0H24v-248h183v40H76" id="bh"/><g id="N"><use transform="matrix(0.05,0,0,0.05,0,0)" xlink:href="#bh"/><use transform="matrix(0.05,0,0,0.05,10.950000000000001,0)" xlink:href="#ah"/><use transform="matrix(0.05,0,0,0.05,20.950000000000003,0)" xlink:href="#ag"/><use transform="matrix(0.05,0,0,0.05,27.950000000000003,0)" xlink:href="#al"/></g><g id="O"><use transform="matrix(0.05,0,0,0.05,0,0)" xlink:href="#aD"/><use transform="matrix(0.05,0,0,0.05,9,0)" xlink:href="#aC"/><use transform="matrix(0.05,0,0,0.05,19,0)" xlink:href="#aJ"/><use transform="matrix(0.05,0,0,0.05,28,0)" xlink:href="#ax"/><use transform="matrix(0.05,0,0,0.05,33,0)" xlink:href="#aK"/><use transform="matrix(0.05,0,0,0.05,45,0)" xlink:href="#au"/><use transform="matrix(0.05,0,0,0.05,55,0)" xlink:href="#ay"/><use transform="matrix(0.05,0,0,0.05,60.95,0)" xlink:href="#aT"/><use transform="matrix(0.05,0,0,0.05,72.95,0)" xlink:href="#ar"/><use transform="matrix(0.05,0,0,0.05,82.95,0)" xlink:href="#az"/><use transform="matrix(0.05,0,0,0.05,86.9,0)" xlink:href="#at"/><use transform="matrix(0.05,0,0,0.05,101.85000000000001,0)" xlink:href="#as"/><use transform="matrix(0.05,0,0,0.05,111.85000000000001,0)" xlink:href="#aB"/><use transform="matrix(0.05,0,0,0.05,115.80000000000001,0)" xlink:href="#aZ"/><use transform="matrix(0.05,0,0,0.05,125.80000000000001,0)" xlink:href="#au"/><use transform="matrix(0.05,0,0,0.05,135.8,0)" xlink:href="#ay"/><use transform="matrix(0.05,0,0,0.05,141.75,0)" xlink:href="#bd"/><use transform="matrix(0.05,0,0,0.05,154.7,0)" xlink:href="#as"/><use transform="matrix(0.05,0,0,0.05,164.7,0)" xlink:href="#bc"/><use transform="matrix(0.05,0,0,0.05,173.7,0)" xlink:href="#av"/></g><g id="P"><use transform="matrix(0.05,0,0,0.05,0,0)" xlink:href="#az"/><use transform="matrix(0.05,0,0,0.05,3.95,0)" xlink:href="#ar"/><use transform="matrix(0.05,0,0,0.05,13.949999999999998,0)" xlink:href="#ax"/></g><g id="Q"><use transform="matrix(0.05,0,0,0.05,0,0)" xlink:href="#as"/><use transform="matrix(0.05,0,0,0.05,10,0)" xlink:href="#ar"/><use transform="matrix(0.05,0,0,0.05,20,0)" xlink:href="#az"/><use transform="matrix(0.05,0,0,0.05,23.95,0)" xlink:href="#at"/><use transform="matrix(0.05,0,0,0.05,38.9,0)" xlink:href="#as"/><use transform="matrix(0.05,0,0,0.05,48.9,0)" xlink:href="#aB"/><use transform="matrix(0.05,0,0,0.05,52.85,0)" xlink:href="#aY"/><use transform="matrix(0.05,0,0,0.05,62.800000000000004,0)" xlink:href="#bc"/><use transform="matrix(0.05,0,0,0.05,71.80000000000001,0)" xlink:href="#aZ"/><use transform="matrix(0.05,0,0,0.05,81.80000000000001,0)" xlink:href="#au"/><use transform="matrix(0.05,0,0,0.05,91.80000000000001,0)" xlink:href="#av"/></g><g id="R"><use transform="matrix(0.05,0,0,0.05,0,0)" xlink:href="#aw"/><use transform="matrix(0.05,0,0,0.05,12,0)" xlink:href="#ax"/><use transform="matrix(0.05,0,0,0.05,17,0)" xlink:href="#ay"/><use transform="matrix(0.05,0,0,0.05,22.95,0)" xlink:href="#az"/><use transform="matrix(0.05,0,0,0.05,26.899999999999995,0)" xlink:href="#ar"/><use transform="matrix(0.05,0,0,0.05,36.9,0)" xlink:href="#aA"/></g><path fill="#333" d="M84 4C32 4 15-41 15-95c0-55 18-99 73-99 29 0 47 12 58 34l2-30h48l-1 265h-49V-32C136-9 114 4 84 4zm21-34c32 0 41-29 41-66 0-36-9-64-40-64-33 0-39 30-40 65 0 43 13 65 39 65" id="bi"/><path fill="#333" d="M85 4C-2 5 27-109 22-190h50c7 57-23 150 33 157 60-5 35-97 40-157h50l1 190h-47c-2-12 1-28-3-38-12 25-28 42-61 42" id="bj"/><g id="S"><use transform="matrix(0.05,0,0,0.05,0,0)" xlink:href="#ac"/><use transform="matrix(0.05,0,0,0.05,12.950000000000001,0)" xlink:href="#bi"/><use transform="matrix(0.05,0,0,0.05,23.900000000000002,0)" xlink:href="#bj"/><use transform="matrix(0.05,0,0,0.05,34.85,0)" xlink:href="#ah"/><use transform="matrix(0.05,0,0,0.05,44.85,0)" xlink:href="#ag"/><use transform="matrix(0.05,0,0,0.05,51.85,0)" xlink:href="#ak"/><use transform="matrix(0.05,0,0,0.05,56.85,0)" xlink:href="#bj"/><use transform="matrix(0.05,0,0,0.05,67.8,0)" xlink:href="#al"/></g><path fill="#333" d="M63-220v92h138v28H63V0H30v-248h175v28H63" id="bk"/><g id="T"><use transform="matrix(0.05,0,0,0.05,0,0)" xlink:href="#aq"/><use transform="matrix(0.05,0,0,0.05,5.95,0)" xlink:href="#aD"/><use transform="matrix(0.05,0,0,0.05,14.949999999999998,0)" xlink:href="#aC"/><use transform="matrix(0.05,0,0,0.05,24.95,0)" xlink:href="#aJ"/><use transform="matrix(0.05,0,0,0.05,33.95,0)" xlink:href="#ax"/><use transform="matrix(0.05,0,0,0.05,38.95,0)" xlink:href="#aK"/><use transform="matrix(0.05,0,0,0.05,50.95,0)" xlink:href="#au"/><use transform="matrix(0.05,0,0,0.05,60.95,0)" xlink:href="#ay"/><use transform="matrix(0.05,0,0,0.05,66.9,0)" xlink:href="#bd"/><use transform="matrix(0.05,0,0,0.05,79.85000000000001,0)" xlink:href="#as"/><use transform="matrix(0.05,0,0,0.05,89.85000000000001,0)" xlink:href="#bc"/><use transform="matrix(0.05,0,0,0.05,98.85000000000001,0)" xlink:href="#aK"/><use transform="matrix(0.05,0,0,0.05,110.85000000000001,0)" xlink:href="#au"/><use transform="matrix(0.05,0,0,0.05,120.85000000000001,0)" xlink:href="#ay"/><use transform="matrix(0.05,0,0,0.05,126.80000000000001,0)" xlink:href="#bk"/><use transform="matrix(0.05,0,0,0.05,137.75,0)" xlink:href="#az"/><use transform="matrix(0.05,0,0,0.05,141.7,0)" xlink:href="#aJ"/><use transform="matrix(0.05,0,0,0.05,150.7,0)" xlink:href="#aM"/><use transform="matrix(0.05,0,0,0.05,160.7,0)" xlink:href="#av"/></g><g id="U"><use transform="matrix(0.05,0,0,0.05,0,0)" xlink:href="#az"/><use transform="matrix(0.05,0,0,0.05,3.95,0)" xlink:href="#ar"/><use transform="matrix(0.05,0,0,0.05,13.949999999999998,0)" xlink:href="#ax"/></g><path fill="#333" d="M140-251c81 0 123 46 123 126C263-46 219 4 140 4 59 4 17-45 17-125s42-126 123-126zm0 227c63 0 89-41 89-101s-29-99-89-99c-61 0-89 39-89 99S79-25 140-24" id="bl"/><path fill="#333" d="M33 0v-248h34V0H33" id="bm"/><path fill="#333" d="M145-31C134-9 116 4 85 4 32 4 16-35 15-94c0-59 17-99 70-100 32-1 48 14 60 33 0-11-1-24 2-32h30l-1 268h-32zM93-21c41 0 51-33 51-76s-8-73-50-73c-40 0-46 35-46 75s5 74 45 74" id="bn"/><g id="V"><use transform="matrix(0.05,0,0,0.05,0,0)" xlink:href="#aq"/><use transform="matrix(0.05,0,0,0.05,5.95,0)" xlink:href="#ar"/><use transform="matrix(0.05,0,0,0.05,15.949999999999998,0)" xlink:href="#aF"/><use transform="matrix(0.05,0,0,0.05,25.950000000000003,0)" xlink:href="#at"/><use transform="matrix(0.05,0,0,0.05,40.9,0)" xlink:href="#aG"/><use transform="matrix(0.05,0,0,0.05,50.9,0)" xlink:href="#au"/><use transform="matrix(0.05,0,0,0.05,60.900000000000006,0)" xlink:href="#ay"/><use transform="matrix(0.05,0,0,0.05,66.85,0)" xlink:href="#bl"/><use transform="matrix(0.05,0,0,0.05,80.85,0)" xlink:href="#aW"/><use transform="matrix(0.05,0,0,0.05,85.85,0)" xlink:href="#bk"/><use transform="matrix(0.05,0,0,0.05,96.8,0)" xlink:href="#az"/><use transform="matrix(0.05,0,0,0.05,100.75,0)" xlink:href="#aJ"/><use transform="matrix(0.05,0,0,0.05,109.75,0)" xlink:href="#aM"/><use transform="matrix(0.05,0,0,0.05,119.75,0)" xlink:href="#bm"/><use transform="matrix(0.05,0,0,0.05,124.75,0)" xlink:href="#ar"/><use transform="matrix(0.05,0,0,0.05,134.75,0)" xlink:href="#bl"/><use transform="matrix(0.05,0,0,0.05,148.75,0)" xlink:href="#ar"/><use transform="matrix(0.05,0,0,0.05,158.75,0)" xlink:href="#au"/><use transform="matrix(0.05,0,0,0.05,168.75,0)" xlink:href="#aT"/><use transform="matrix(0.05,0,0,0.05,180.75,0)" xlink:href="#bn"/><use transform="matrix(0.05,0,0,0.05,190.75,0)" xlink:href="#aF"/><use transform="matrix(0.05,0,0,0.05,200.75,0)" xlink:href="#as"/><use transform="matrix(0.05,0,0,0.05,210.75,0)" xlink:href="#ay"/><use transform="matrix(0.05,0,0,0.05,216.69999999999996,0)" xlink:href="#az"/><use transform="matrix(0.05,0,0,0.05,220.64999999999998,0)" xlink:href="#aF"/><use transform="matrix(0.05,0,0,0.05,230.64999999999998,0)" xlink:href="#at"/><use transform="matrix(0.05,0,0,0.05,245.59999999999997,0)" xlink:href="#av"/></g><g id="W"><use transform="matrix(0.05,0,0,0.05,0,0)" xlink:href="#aq"/><use transform="matrix(0.05,0,0,0.05,5.95,0)" xlink:href="#ar"/><use transform="matrix(0.05,0,0,0.05,15.949999999999998,0)" xlink:href="#aF"/><use transform="matrix(0.05,0,0,0.05,25.950000000000003,0)" xlink:href="#at"/><use transform="matrix(0.05,0,0,0.05,40.9,0)" xlink:href="#aG"/><use transform="matrix(0.05,0,0,0.05,50.9,0)" xlink:href="#au"/><use transform="matrix(0.05,0,0,0.05,60.900000000000006,0)" xlink:href="#ay"/><use transform="matrix(0.05,0,0,0.05,66.85,0)" xlink:href="#bl"/><use transform="matrix(0.05,0,0,0.05,80.85,0)" xlink:href="#aW"/><use transform="matrix(0.05,0,0,0.05,85.85,0)" xlink:href="#aT"/><use transform="matrix(0.05,0,0,0.05,97.85,0)" xlink:href="#bn"/><use transform="matrix(0.05,0,0,0.05,107.84999999999998,0)" xlink:href="#aF"/><use transform="matrix(0.05,0,0,0.05,117.84999999999998,0)" xlink:href="#as"/><use transform="matrix(0.05,0,0,0.05,127.84999999999998,0)" xlink:href="#ay"/><use transform="matrix(0.05,0,0,0.05,133.79999999999998,0)" xlink:href="#az"/><use transform="matrix(0.05,0,0,0.05,137.74999999999997,0)" xlink:href="#aF"/><use transform="matrix(0.05,0,0,0.05,147.74999999999997,0)" xlink:href="#at"/><use transform="matrix(0.05,0,0,0.05,162.69999999999996,0)" xlink:href="#aJ"/><use transform="matrix(0.05,0,0,0.05,171.69999999999996,0)" xlink:href="#av"/></g><path fill="#333" d="M169-182c-1-43-94-46-97-3 18 66 151 10 154 114 3 95-165 93-204 36-6-8-10-19-12-30l50-8c3 46 112 56 116 5-17-69-150-10-154-114-4-87 153-88 188-35 5 8 8 18 10 28" id="bo"/><path fill="#333" d="M123 10C108 53 80 86 19 72V37c35 8 53-11 59-39L3-190h52l48 148c12-52 28-100 44-148h51" id="bp"/><g id="X"><use transform="matrix(0.05,0,0,0.05,0,0)" xlink:href="#bo"/><use transform="matrix(0.05,0,0,0.05,12,0)" xlink:href="#ah"/><use transform="matrix(0.05,0,0,0.05,22,0)" xlink:href="#aj"/><use transform="matrix(0.05,0,0,0.05,32.95,0)" xlink:href="#ai"/><use transform="matrix(0.05,0,0,0.05,42.95,0)" xlink:href="#af"/><use transform="matrix(0.05,0,0,0.05,48.900000000000006,0)" xlink:href="#bj"/><use transform="matrix(0.05,0,0,0.05,59.85,0)" xlink:href="#ah"/><use transform="matrix(0.05,0,0,0.05,69.85000000000001,0)" xlink:href="#ag"/><use transform="matrix(0.05,0,0,0.05,76.85000000000001,0)" xlink:href="#bp"/></g><path fill="#333" d="M30 0v-248h187v28H63v79h144v27H63v87h162V0H30" id="bq"/><g id="Y"><use transform="matrix(0.05,0,0,0.05,0,0)" xlink:href="#ar"/><use transform="matrix(0.05,0,0,0.05,10,0)" xlink:href="#aF"/><use transform="matrix(0.05,0,0,0.05,20,0)" xlink:href="#at"/><use transform="matrix(0.05,0,0,0.05,34.95,0)" xlink:href="#aG"/><use transform="matrix(0.05,0,0,0.05,44.95,0)" xlink:href="#au"/><use transform="matrix(0.05,0,0,0.05,54.95,0)" xlink:href="#ay"/><use transform="matrix(0.05,0,0,0.05,60.900000000000006,0)" xlink:href="#bl"/><use transform="matrix(0.05,0,0,0.05,74.9,0)" xlink:href="#aW"/><use transform="matrix(0.05,0,0,0.05,79.9,0)" xlink:href="#bq"/><use transform="matrix(0.05,0,0,0.05,91.9,0)" xlink:href="#ar"/><use transform="matrix(0.05,0,0,0.05,101.9,0)" xlink:href="#aE"/><use transform="matrix(0.05,0,0,0.05,111.9,0)" xlink:href="#as"/><use transform="matrix(0.05,0,0,0.05,121.9,0)" xlink:href="#ar"/><use transform="matrix(0.05,0,0,0.05,131.9,0)" xlink:href="#aA"/><use transform="matrix(0.05,0,0,0.05,141.9,0)" xlink:href="#au"/><use transform="matrix(0.05,0,0,0.05,151.9,0)" xlink:href="#ay"/><use transform="matrix(0.05,0,0,0.05,157.85,0)" xlink:href="#au"/><use transform="matrix(0.05,0,0,0.05,167.85,0)" xlink:href="#aE"/><use transform="matrix(0.05,0,0,0.05,177.85,0)" xlink:href="#aT"/><use transform="matrix(0.05,0,0,0.05,189.85,0)" xlink:href="#ar"/><use transform="matrix(0.05,0,0,0.05,199.85,0)" xlink:href="#az"/><use transform="matrix(0.05,0,0,0.05,203.79999999999998,0)" xlink:href="#at"/><use transform="matrix(0.05,0,0,0.05,218.74999999999997,0)" xlink:href="#as"/><use transform="matrix(0.05,0,0,0.05,228.74999999999997,0)" xlink:href="#aB"/><use transform="matrix(0.05,0,0,0.05,232.69999999999996,0)" xlink:href="#aJ"/></g><g id="Z"><use transform="matrix(0.05,0,0,0.05,0,0)" xlink:href="#ar"/><use transform="matrix(0.05,0,0,0.05,10,0)" xlink:href="#aF"/><use transform="matrix(0.05,0,0,0.05,20,0)" xlink:href="#at"/><use transform="matrix(0.05,0,0,0.05,34.95,0)" xlink:href="#aG"/><use transform="matrix(0.05,0,0,0.05,44.95,0)" xlink:href="#au"/><use transform="matrix(0.05,0,0,0.05,54.95,0)" xlink:href="#ay"/><use transform="matrix(0.05,0,0,0.05,60.900000000000006,0)" xlink:href="#bl"/><use transform="matrix(0.05,0,0,0.05,74.9,0)" xlink:href="#aW"/><use transform="matrix(0.05,0,0,0.05,79.9,0)" xlink:href="#aT"/><use transform="matrix(0.05,0,0,0.05,91.9,0)" xlink:href="#ar"/><use transform="matrix(0.05,0,0,0.05,101.9,0)" xlink:href="#az"/><use transform="matrix(0.05,0,0,0.05,105.85000000000001,0)" xlink:href="#at"/><use transform="matrix(0.05,0,0,0.05,120.80000000000001,0)" xlink:href="#as"/><use transform="matrix(0.05,0,0,0.05,130.8,0)" xlink:href="#aB"/><use transform="matrix(0.05,0,0,0.05,134.75,0)" xlink:href="#aJ"/></g><g id="aa"><use transform="matrix(0.05,0,0,0.05,0,0)" xlink:href="#aD"/><use transform="matrix(0.05,0,0,0.05,9,0)" xlink:href="#aC"/><use transform="matrix(0.05,0,0,0.05,19,0)" xlink:href="#aJ"/><use transform="matrix(0.05,0,0,0.05,28,0)" xlink:href="#ax"/><use transform="matrix(0.05,0,0,0.05,33,0)" xlink:href="#aK"/><use transform="matrix(0.05,0,0,0.05,45,0)" xlink:href="#au"/><use transform="matrix(0.05,0,0,0.05,55,0)" xlink:href="#ay"/><use transform="matrix(0.05,0,0,0.05,60.95,0)" xlink:href="#bd"/><use transform="matrix(0.05,0,0,0.05,73.9,0)" xlink:href="#as"/><use transform="matrix(0.05,0,0,0.05,83.9,0)" xlink:href="#bc"/><use transform="matrix(0.05,0,0,0.05,92.9,0)" xlink:href="#aK"/><use transform="matrix(0.05,0,0,0.05,104.9,0)" xlink:href="#au"/><use transform="matrix(0.05,0,0,0.05,114.9,0)" xlink:href="#ay"/><use transform="matrix(0.05,0,0,0.05,120.85000000000001,0)" xlink:href="#aT"/><use transform="matrix(0.05,0,0,0.05,132.85000000000002,0)" xlink:href="#ar"/><use transform="matrix(0.05,0,0,0.05,142.85000000000002,0)" xlink:href="#az"/><use transform="matrix(0.05,0,0,0.05,146.8,0)" xlink:href="#at"/><use transform="matrix(0.05,0,0,0.05,161.75,0)" xlink:href="#as"/><use transform="matrix(0.05,0,0,0.05,171.75,0)" xlink:href="#aB"/></g><g id="ab"><use transform="matrix(0.05,0,0,0.05,0,0)" xlink:href="#aD"/><use transform="matrix(0.05,0,0,0.05,9,0)" xlink:href="#aC"/><use transform="matrix(0.05,0,0,0.05,19,0)" xlink:href="#aJ"/><use transform="matrix(0.05,0,0,0.05,28,0)" xlink:href="#ax"/><use transform="matrix(0.05,0,0,0.05,33,0)" xlink:href="#aK"/><use transform="matrix(0.05,0,0,0.05,45,0)" xlink:href="#au"/><use transform="matrix(0.05,0,0,0.05,55,0)" xlink:href="#ay"/><use transform="matrix(0.05,0,0,0.05,60.95,0)" xlink:href="#bd"/><use transform="matrix(0.05,0,0,0.05,73.9,0)" xlink:href="#as"/><use transform="matrix(0.05,0,0,0.05,83.9,0)" xlink:href="#bc"/><use transform="matrix(0.05,0,0,0.05,92.9,0)" xlink:href="#aK"/><use transform="matrix(0.05,0,0,0.05,104.9,0)" xlink:href="#au"/><use transform="matrix(0.05,0,0,0.05,114.9,0)" xlink:href="#ay"/><use transform="matrix(0.05,0,0,0.05,120.85000000000001,0)" xlink:href="#bq"/><use transform="matrix(0.05,0,0,0.05,132.85000000000002,0)" xlink:href="#ar"/><use transform="matrix(0.05,0,0,0.05,142.85000000000002,0)" xlink:href="#aE"/><use transform="matrix(0.05,0,0,0.05,152.85000000000002,0)" xlink:href="#as"/><use transform="matrix(0.05,0,0,0.05,162.85000000000002,0)" xlink:href="#ar"/><use transform="matrix(0.05,0,0,0.05,172.85000000000002,0)" xlink:href="#aA"/><use transform="matrix(0.05,0,0,0.05,182.85000000000002,0)" xlink:href="#au"/><use transform="matrix(0.05,0,0,0.05,192.85000000000002,0)" xlink:href="#ay"/><use transform="matrix(0.05,0,0,0.05,198.8,0)" xlink:href="#au"/><use transform="matrix(0.05,0,0,0.05,208.8,0)" xlink:href="#aE"/><use transform="matrix(0.05,0,0,0.05,218.8,0)" xlink:href="#aT"/><use transform="matrix(0.05,0,0,0.05,230.8,0)" xlink:href="#ar"/><use transform="matrix(0.05,0,0,0.05,240.8,0)" xlink:href="#az"/><use transform="matrix(0.05,0,0,0.05,244.75,0)" xlink:href="#at"/><use transform="matrix(0.05,0,0,0.05,259.7,0)" xlink:href="#as"/><use transform="matrix(0.05,0,0,0.05,269.7,0)" xlink:href="#aB"/></g></defs></g></svg>